<?xml version="1.0"?>
<svg width="400" height="461.694270324707" xmlns="http://www.w3.org/2000/svg" xmlns:svg="http://www.w3.org/2000/svg" preserveAspectRatio="xMidYMid meet" version="1.1">
 <title>Chord diagram created with chordpic.com</title>
 <g class="layer">
  <title>Layer 1</title>
  <line id="svg_1" stroke="#ffffff" stroke-width="2" x1="65.6" x2="94.4" y1="9.6" y2="38.4"/>
  <line id="svg_2" stroke="#ffffff" stroke-width="2" x1="65.6" x2="94.4" y1="38.4" y2="9.6"/>
  <circle class="open-string open-string-2" cx="176" cy="24" fill="none" id="svg_3" r="14.4" stroke="#ffffff" stroke-width="2"/>
  <line id="svg_4" stroke="#ffffff" stroke-width="12" x1="79" x2="321" y1="53" y2="53"/>
  <line id="svg_5" stroke="#ffffff" stroke-width="2" x1="80" x2="320" y1="130" y2="130"/>
  <line id="svg_6" stroke="#ffffff" stroke-width="2" x1="80" x2="320" y1="202" y2="202"/>
  <line id="svg_7" stroke="#ffffff" stroke-width="2" x1="80" x2="320" y1="274" y2="274"/>
  <line id="svg_8" stroke="#ffffff" stroke-width="2" x1="80" x2="320" y1="346" y2="346"/>
  <line id="svg_9" stroke="#ffffff" stroke-width="2" x1="80" x2="320" y1="418" y2="418"/>
  <line id="svg_10" stroke="#ffffff" stroke-width="2" x1="80" x2="80" y1="58" y2="419"/>
  <line id="svg_11" stroke="#ffffff" stroke-width="2" x1="128" x2="128" y1="58" y2="419"/>
  <line id="svg_12" stroke="#ffffff" stroke-width="2" x1="176" x2="176" y1="58" y2="419"/>
  <line id="svg_13" stroke="#ffffff" stroke-width="2" x1="224" x2="224" y1="58" y2="419"/>
  <line id="svg_14" stroke="#ffffff" stroke-width="2" x1="272" x2="272" y1="58" y2="419"/>
  <line id="svg_15" stroke="#ffffff" stroke-width="2" x1="320" x2="320" y1="58" y2="419"/>
  <circle class="finger finger-string-1 finger-fret-0 finger-string-1-fret-0 finger-circle" cx="128" cy="94" fill="#ffffff" id="svg_16" r="15.6" stroke="#ffffff" stroke-width="0" transform="matrix(1 0 0 1 0 0)"/>
  <circle class="finger finger-string-5 finger-fret-1 finger-string-5-fret-1 finger-circle" cx="320" cy="166" fill="#ffffff" id="svg_17" r="15.6" stroke="#ffffff" stroke-width="0"/>
  <circle class="finger finger-string-3 finger-fret-2 finger-string-3-fret-2 finger-circle" cx="224" cy="238" fill="#ffffff" id="svg_18" r="15.6" stroke="#ffffff" stroke-width="0" transform="matrix(1 0 0 1 0 0)"/>
  <circle class="finger finger-string-4 finger-fret-2 finger-string-4-fret-2 finger-circle" cx="272" cy="238" fill="#ffffff" id="svg_19" r="15.6" stroke="#ffffff" stroke-width="0" transform="matrix(1 0 0 1 0 0)"/>
  <text class="tuning tuning-0" dominant-baseline="central" fill="#000000" font-family="Arial, &quot;Helvetica Neue&quot;, Helvetica, sans-serif" font-size="28" id="svg_20" stroke="#ffffff" text-anchor="middle" x="80" y="432.4"/>
  <text class="tuning tuning-1" dominant-baseline="central" fill="#000000" font-family="Arial, &quot;Helvetica Neue&quot;, Helvetica, sans-serif" font-size="28" id="svg_21" stroke="#ffffff" text-anchor="middle" x="128" y="432.4"/>
  <text class="tuning tuning-2" dominant-baseline="central" fill="#000000" font-family="Arial, &quot;Helvetica Neue&quot;, Helvetica, sans-serif" font-size="28" id="svg_22" stroke="#ffffff" text-anchor="middle" x="176" y="432.4"/>
  <text class="tuning tuning-3" dominant-baseline="central" fill="#000000" font-family="Arial, &quot;Helvetica Neue&quot;, Helvetica, sans-serif" font-size="28" id="svg_23" stroke="#ffffff" text-anchor="middle" x="224" y="432.4"/>
  <text class="tuning tuning-4" dominant-baseline="central" fill="#000000" font-family="Arial, &quot;Helvetica Neue&quot;, Helvetica, sans-serif" font-size="28" id="svg_24" stroke="#ffffff" text-anchor="middle" x="272" y="432.4"/>
  <text class="tuning tuning-5" dominant-baseline="central" fill="#000000" font-family="Arial, &quot;Helvetica Neue&quot;, Helvetica, sans-serif" font-size="28" id="svg_25" stroke="#ffffff" text-anchor="middle" x="320" y="432.4"/>
  <circle class="top-left" cx="0" cy="0" fill="none" id="svg_28" r="0" stroke="transparent" stroke-width="0"/>
  <circle class="top-right" cx="400" cy="0" fill="none" id="svg_29" r="0" stroke="#ffffff" stroke-width="0"/>
 </g>
</svg>