<?xml version="1.0"?>
<svg width="400" height="461.4573089599609" xmlns="http://www.w3.org/2000/svg" xmlns:svg="http://www.w3.org/2000/svg" preserveAspectRatio="xMidYMid meet" version="1.1">
 <title>Chord diagram created with chordpic.com</title>
 <g class="layer" display="inline">
  <title>Layer 1</title>
  <text class="title" fill="#000000" font-family="Arial, &quot;Helvetica Neue&quot;, Helvetica, sans-serif" font-size="48" id="svg_1" stroke="#ffffff" text-anchor="middle" x="200" y="5"/>
  <line id="svg_3" stroke="#ffffff" stroke-width="2" x1="65.6" x2="94.4" y1="9.6" y2="38.4"/>
  <line id="svg_4" stroke="#ffffff" stroke-width="2" x1="65.6" x2="94.4" y1="38.4" y2="9.6"/>
  <line id="svg_5" stroke="#ffffff" stroke-width="2" x1="113.6" x2="142.4" y1="9.6" y2="38.4"/>
  <line id="svg_6" stroke="#ffffff" stroke-width="2" x1="113.6" x2="142.4" y1="38.4" y2="9.6"/>
  <line id="svg_7" stroke="#ffffff" stroke-width="2" x1="161.6" x2="190.4" y1="9.6" y2="38.4"/>
  <line id="svg_8" stroke="#ffffff" stroke-width="2" x1="161.6" x2="190.4" y1="38.4" y2="9.6"/>
  <line id="svg_9" stroke="#ffffff" stroke-width="2" x1="209.6" x2="238.4" y1="9.6" y2="38.4"/>
  <line id="svg_10" stroke="#ffffff" stroke-width="2" x1="209.6" x2="238.4" y1="38.4" y2="9.6"/>
  <line id="svg_11" stroke="#ffffff" stroke-width="2" x1="257.6" x2="286.4" y1="9.6" y2="38.4"/>
  <line id="svg_12" stroke="#ffffff" stroke-width="2" x1="257.6" x2="286.4" y1="38.4" y2="9.6"/>
  <line id="svg_13" stroke="#ffffff" stroke-width="2" x1="305.6" x2="334.4" y1="9.6" y2="38.4"/>
  <line id="svg_14" stroke="#ffffff" stroke-width="2" x1="305.6" x2="334.4" y1="38.4" y2="9.6"/>
  <line id="svg_15" stroke="#ffffff" stroke-width="12" x1="79" x2="321" y1="53" y2="53"/>
  <line id="svg_16" stroke="#ffffff" stroke-width="2" x1="80" x2="320" y1="130" y2="130"/>
  <line id="svg_17" stroke="#ffffff" stroke-width="2" x1="80" x2="320" y1="202" y2="202"/>
  <line id="svg_18" stroke="#ffffff" stroke-width="2" x1="80" x2="320" y1="274" y2="274"/>
  <line id="svg_19" stroke="#ffffff" stroke-width="2" x1="80" x2="320" y1="346" y2="346"/>
  <line id="svg_20" stroke="#ffffff" stroke-width="2" x1="80" x2="320" y1="418" y2="418"/>
  <line id="svg_21" stroke="#ffffff" stroke-width="2" x1="80" x2="80" y1="58" y2="419"/>
  <line id="svg_22" stroke="#ffffff" stroke-width="2" x1="128" x2="128" y1="58" y2="419"/>
  <line id="svg_23" stroke="#ffffff" stroke-width="2" x1="176" x2="176" y1="58" y2="419"/>
  <line id="svg_24" stroke="#ffffff" stroke-width="2" x1="224" x2="224" y1="58" y2="419"/>
  <line id="svg_25" stroke="#ffffff" stroke-width="2" x1="272" x2="272" y1="58" y2="419"/>
  <line id="svg_26" stroke="#ffffff" stroke-width="2" x1="320" x2="320" y1="58" y2="419"/>
  <text class="tuning tuning-0" dominant-baseline="central" fill="#000000" font-family="Arial, &quot;Helvetica Neue&quot;, Helvetica, sans-serif" font-size="28" id="svg_27" stroke="#ffffff" text-anchor="middle" x="80" y="432.4"/>
  <text class="tuning tuning-1" dominant-baseline="central" fill="#000000" font-family="Arial, &quot;Helvetica Neue&quot;, Helvetica, sans-serif" font-size="28" id="svg_28" stroke="#ffffff" text-anchor="middle" x="128" y="432.4"/>
  <text class="tuning tuning-2" dominant-baseline="central" fill="#000000" font-family="Arial, &quot;Helvetica Neue&quot;, Helvetica, sans-serif" font-size="28" id="svg_29" stroke="#ffffff" text-anchor="middle" x="176" y="432.4"/>
  <text class="tuning tuning-3" dominant-baseline="central" fill="#000000" font-family="Arial, &quot;Helvetica Neue&quot;, Helvetica, sans-serif" font-size="28" id="svg_30" stroke="#ffffff" text-anchor="middle" x="224" y="432.4"/>
  <text class="tuning tuning-4" dominant-baseline="central" fill="#000000" font-family="Arial, &quot;Helvetica Neue&quot;, Helvetica, sans-serif" font-size="28" id="svg_31" stroke="#ffffff" text-anchor="middle" x="272" y="432.4"/>
  <text class="tuning tuning-5" dominant-baseline="central" fill="#000000" font-family="Arial, &quot;Helvetica Neue&quot;, Helvetica, sans-serif" font-size="28" id="svg_32" stroke="#ffffff" text-anchor="middle" x="320" y="432.4"/>
  <circle class="top-left" cx="0" cy="0" fill="none" id="svg_35" r="0" stroke="transparent" stroke-width="0"/>
  <circle class="top-right" cx="400" cy="0" fill="none" id="svg_36" r="0" stroke="transparent" stroke-width="0"/>
 </g>
</svg>